<svg version="1.1" id="Layer_1" xmlns="http://www.w3.org/2000/svg" xmlns:xlink="http://www.w3.org/1999/xlink" x="0px" y="0px"
	 width="100%" viewBox="0 0 300 126" enable-background="new 0 0 300 126" xml:space="preserve">
<path fill="#FCFDFC" opacity="1.000000" stroke="none" 
	d="
M1.000000,54.000000 
	C1.000000,36.351578 1.000000,18.703154 1.000000,1.027365 
	C100.878479,1.027365 200.756973,1.027365 301.000000,1.027365 
	C301.000000,24.352962 301.000000,47.707825 300.664734,71.402298 
	C297.342255,66.208801 292.196045,68.062851 287.859283,68.574463 
	C283.588898,69.078239 280.704956,72.110443 279.992371,76.529007 
	C278.675140,84.696892 284.185089,87.741325 290.822021,90.224632 
	C288.620819,90.885391 286.471436,90.318756 284.900330,91.029831 
	C282.967163,91.904762 280.474548,93.614647 280.084839,95.375534 
	C279.383881,98.542648 281.951477,99.739082 285.023651,100.139626 
	C292.298676,101.088135 297.518311,98.332062 301.000000,92.000000 
	C301.000000,103.654022 301.000000,115.308052 301.000000,126.981033 
	C201.121017,126.981033 101.242020,126.981033 1.000000,126.981033 
	C1.000000,104.313728 1.000000,81.625526 1.327637,58.564548 
	C9.748715,62.145222 17.842157,66.098663 25.973755,70.465057 
	C26.110664,72.537796 26.209421,74.197594 26.205952,76.211044 
	C26.151390,77.049294 26.199059,77.533882 26.178539,78.477287 
	C26.166349,83.284576 26.222343,87.633041 26.199083,92.443909 
	C26.246487,98.326813 26.373146,103.747330 26.585041,109.529938 
	C30.232729,114.094284 31.587749,114.113029 35.262218,109.671295 
	C35.412811,98.541901 35.324772,87.748795 35.294022,76.592033 
	C35.373554,75.244499 35.395790,74.260628 35.798531,73.212326 
	C50.750935,75.910957 65.316628,75.772026 79.924667,73.446365 
	C80.052361,74.884102 80.132179,75.929787 80.119034,77.437332 
	C80.048775,87.542809 80.104172,97.186531 80.075851,106.830009 
	C80.066376,110.057259 81.111237,112.670601 84.587669,112.841431 
	C88.460342,113.031731 89.663559,110.192139 89.617973,106.843407 
	C89.477798,96.546822 89.238731,86.251579 89.116608,75.536530 
	C89.192451,73.683174 89.189796,72.249115 89.448959,70.600510 
	C91.257347,69.783875 92.852051,69.281471 94.341919,68.562004 
	C100.024277,65.817947 105.742630,63.134411 111.303726,60.159443 
	C113.969925,58.733131 115.335518,55.911797 113.061523,53.560505 
	C111.780205,52.235619 108.807495,52.040730 106.667961,52.214413 
	C105.008003,52.349163 103.488670,53.903942 101.855301,54.724987 
	C71.356270,70.055855 41.035877,69.642624 11.125890,53.240837 
	C7.100633,51.033504 4.167337,50.863766 1.000000,54.000000 
M158.871948,112.076019 
	C160.040710,113.242683 161.209473,114.409355 162.378235,115.576019 
	C162.605042,113.433067 161.941483,111.669334 160.905014,110.162018 
	C160.723572,109.898148 158.975433,110.711555 157.344452,110.881508 
	C156.855240,111.033440 155.944824,111.172180 155.939606,111.339272 
	C155.851761,114.145111 155.876831,116.954498 155.876831,120.400085 
	C157.458939,118.594017 158.428787,117.486870 158.499237,117.406464 
	C158.336365,115.085899 158.229736,113.566643 158.871948,112.076019 
M149.946640,111.489388 
	C149.739990,111.521347 149.533340,111.553307 149.326691,111.585258 
	C149.501602,111.767052 149.676514,111.948845 149.922974,112.824272 
	C149.473618,114.266853 149.024261,115.709442 148.258942,118.166397 
	C150.700378,117.432518 152.282166,116.957047 153.947144,116.456566 
	C153.947144,114.824165 153.947144,112.882973 153.947144,110.979195 
	C152.591797,111.279388 151.377457,111.548340 149.946640,111.489388 
M134.377380,61.660221 
	C134.487167,62.433891 134.596954,63.207561 134.400864,64.869240 
	C134.372879,74.830849 134.139252,84.800049 134.506638,94.747055 
	C134.572708,96.536118 137.115341,98.233727 138.514542,99.973557 
	C139.897400,98.248840 142.421982,96.557854 142.474091,94.793823 
	C142.767578,84.858719 142.466599,74.906059 142.620651,64.187065 
	C142.651489,62.834381 142.682327,61.481697 142.883301,59.563660 
	C142.851273,59.369484 142.819229,59.175308 142.839874,58.048161 
	C142.842575,46.225052 142.780319,34.401386 142.881485,22.579121 
	C142.919449,18.141743 145.812653,15.004762 149.725555,14.855175 
	C153.988708,14.692201 156.718307,16.859739 157.713409,20.920160 
	C158.606827,24.565678 155.963928,28.347660 151.900024,29.596964 
	C150.953903,29.887815 149.606339,29.634182 149.032135,30.214008 
	C147.857529,31.400124 146.252838,33.059898 146.376938,34.378586 
	C146.500076,35.686981 148.357178,37.494843 149.766403,37.852722 
	C151.549667,38.305592 153.750275,37.819683 155.593994,37.206688 
	C163.159393,34.691360 167.501114,26.830288 165.904739,18.904509 
	C164.413300,11.499879 156.872925,5.693935 149.491669,6.266772 
	C141.043198,6.922432 134.435928,13.372832 134.280975,21.947567 
	C134.052475,34.593620 134.323410,47.248699 134.330048,60.419209 
	C134.403442,60.575569 134.476852,60.731934 134.377380,61.660221 
M206.105194,18.445408 
	C205.768478,24.121733 206.610107,29.381443 210.944778,33.610268 
	C216.306427,38.840988 222.713989,38.806118 229.818771,36.868568 
	C229.818771,40.186939 229.854691,42.831711 229.811401,45.475185 
	C229.717346,51.216698 227.809799,53.248653 222.331528,55.105640 
	C220.600830,55.692307 218.346619,57.905323 218.255814,59.484623 
	C218.078766,62.564899 220.801193,63.244854 223.609024,63.107441 
	C230.342407,62.777916 237.329590,57.010845 237.676865,49.768883 
	C238.298523,36.805187 238.054489,23.791342 237.785248,10.806484 
	C237.757294,9.458577 235.117935,8.164817 233.690247,6.845934 
	C232.399628,8.251714 230.281662,9.506623 229.992020,11.094932 
	C229.403763,14.320936 229.879318,17.729441 229.778915,21.058578 
	C229.625946,26.130505 226.342773,29.836990 222.107742,29.875795 
	C217.763489,29.915602 214.833801,26.432526 214.700119,21.065937 
	C214.609024,17.408661 214.895203,13.683421 214.250275,10.126815 
	C213.985825,8.668500 211.453552,6.367751 210.415771,6.592021 
	C208.788010,6.943793 206.891632,8.886358 206.318802,10.567437 
	C205.605225,12.661531 206.120667,15.174417 206.105194,18.445408 
M263.919586,99.455757 
	C264.928833,99.571487 266.576935,99.345604 266.849457,99.855278 
	C269.897400,105.555260 265.980682,113.371750 259.778656,115.230423 
	C258.052277,115.747795 256.880005,118.114212 255.453552,119.632355 
	C257.316559,120.850288 259.168640,123.086357 261.044495,123.106506 
	C268.409760,123.185646 274.966980,116.742004 275.188965,109.064301 
	C275.530090,97.266823 275.335266,85.453575 275.345673,73.647003 
	C275.348145,70.826744 274.268097,68.132950 271.177917,68.932335 
	C269.503998,69.365364 267.722229,72.067856 267.299683,74.028961 
	C266.648987,77.048973 267.196228,80.313728 267.106293,83.470985 
	C266.966187,88.389412 263.910797,91.743881 259.660919,91.791626 
	C255.462769,91.838791 252.184479,88.434151 252.007523,83.623260 
	C251.873123,79.969284 252.415695,76.221764 251.751831,72.685822 
	C251.435837,71.002724 249.011383,69.715477 247.542038,68.248909 
	C246.300720,69.753304 244.281998,71.119240 243.984146,72.791672 
	C243.409851,76.016289 243.788040,79.414200 243.806473,82.740067 
	C243.872101,94.591515 251.177536,101.027321 263.919586,99.455757 
M192.925385,85.728424 
	C191.451553,90.085091 188.561569,92.455269 183.866104,91.477356 
	C180.206589,90.715195 177.997971,88.107964 178.011810,84.378136 
	C178.029266,79.673920 180.854660,77.528717 185.405579,76.479500 
	C187.088013,76.091591 188.201355,73.235275 189.574249,71.504753 
	C187.584839,70.426765 185.535995,68.333916 183.616272,68.446297 
	C175.261047,68.935440 169.303558,76.626511 169.800751,85.513344 
	C170.263977,93.792976 177.323044,100.219994 185.797852,100.078102 
	C194.270172,99.936256 201.049408,93.455742 201.186615,84.934906 
	C201.365952,73.796623 201.213531,62.653301 201.260803,51.512390 
	C201.273560,48.506573 201.131073,45.340294 197.279999,45.346882 
	C193.586365,45.353199 193.073334,48.346275 193.082214,51.447315 
	C193.114120,62.587872 193.064850,73.728661 192.925385,85.728424 
M195.229553,34.864468 
	C196.283356,33.806141 197.479568,32.854496 198.366104,31.670893 
	C202.070633,26.724985 202.271637,19.089342 198.944183,13.779038 
	C195.555130,8.370427 189.179840,5.462776 183.114853,6.559594 
	C176.479965,7.759476 170.458282,12.615097 170.191391,18.690626 
	C169.622131,31.648743 169.818405,44.645744 169.997284,57.622730 
	C170.013794,58.820213 172.223434,61.002125 173.292465,60.929428 
	C174.843964,60.823921 176.594513,59.321026 177.657822,57.947716 
	C178.318619,57.094269 177.905762,55.379162 177.907639,54.050694 
	C177.922501,43.562950 177.871353,33.074814 177.949310,22.587605 
	C177.980576,18.383114 180.184219,15.627077 184.354172,14.918911 
	C188.349869,14.240338 191.178253,16.196276 192.639282,19.827648 
	C194.450943,24.330448 191.355026,28.226469 185.444595,30.083569 
	C183.806595,30.598234 182.686752,32.761974 181.329178,34.169109 
	C182.959290,35.469460 184.614517,37.865280 186.213974,37.828602 
	C189.029572,37.764030 191.811096,36.213303 195.229553,34.864468 
M127.147476,84.447113 
	C126.635269,74.826607 120.023079,68.079361 111.209557,68.183662 
	C102.756065,68.283699 95.659737,75.198029 95.310127,83.675316 
	C94.974838,91.805443 101.531258,99.218811 109.761093,100.015083 
	C118.661392,100.876228 125.813202,94.820221 127.147476,84.447113 
M232.718582,99.871254 
	C236.441162,100.380356 237.946259,98.406929 237.996826,95.006203 
	C238.056229,91.010902 238.203979,86.999107 237.932800,83.020401 
	C237.372513,74.799698 230.596298,68.421967 222.477554,68.185516 
	C214.482956,67.952698 207.173019,74.249634 206.202103,82.205574 
	C205.218979,90.261337 210.575333,97.892021 218.597809,99.684822 
	C221.608734,100.357674 224.979233,100.827339 225.934341,96.821907 
	C226.830109,93.065407 224.196732,92.212273 220.994141,91.627632 
	C216.388290,90.786812 214.105759,87.279350 214.804581,82.887856 
	C215.455765,78.795662 218.094910,76.874466 222.094772,76.785858 
	C226.407013,76.690353 229.369141,79.552673 229.702698,84.343971 
	C229.933472,87.659050 229.527847,91.026970 229.874634,94.322029 
	C230.063034,96.112206 231.229568,97.799438 232.718582,99.871254 
M118.665108,20.412657 
	C118.770668,24.899355 118.539284,29.433781 119.164352,33.846897 
	C119.383484,35.393963 121.707527,36.642891 123.070396,38.027954 
	C124.419228,36.638695 126.782784,35.348087 126.929214,33.841934 
	C127.393700,29.064331 127.399132,24.168036 126.902962,19.388119 
	C126.121048,11.855611 118.082092,5.677409 110.499542,6.276886 
	C102.160881,6.936141 95.378304,13.957864 95.282303,22.030661 
	C95.186340,30.100483 101.823921,37.514015 109.544563,38.038021 
	C112.264107,38.222599 114.801926,37.906258 115.334488,34.743851 
	C115.848755,31.690050 114.041801,30.270948 111.067558,29.873667 
	C106.734741,29.294910 103.512680,26.762167 104.111229,22.363285 
	C104.464165,19.769560 106.766937,16.428570 109.089821,15.342886 
	C112.980202,13.524576 116.511856,15.460219 118.665108,20.412657 
M35.319981,33.495621 
	C35.312408,28.497129 35.690037,23.452383 35.098255,18.524042 
	C34.876945,16.680965 32.601299,13.973632 30.900583,13.667046 
	C28.002823,13.144667 26.055962,15.403219 26.049326,18.633469 
	C26.030508,27.797405 25.814360,36.972168 26.244785,46.115887 
	C26.326385,47.849380 28.786097,50.496063 30.561993,50.898968 
	C33.701637,51.611263 35.270786,49.138474 35.297482,45.988945 
	C35.329960,42.156960 35.314945,38.324566 35.319981,33.495621 
M80.020203,24.602114 
	C80.026978,31.893469 79.751053,39.204456 80.255051,46.461277 
	C80.369690,48.111862 83.011780,50.450630 84.819252,50.807419 
	C85.968445,51.034271 88.945518,48.239956 89.008476,46.713985 
	C89.404358,37.119350 89.407745,27.492540 89.017723,17.897635 
	C88.954704,16.347424 86.262032,13.710547 84.814095,13.730159 
	C83.216576,13.751798 81.100830,15.986502 80.236969,17.757710 
	C79.450226,19.370777 80.038223,21.654335 80.020203,24.602114 
M161.052673,88.428764 
	C161.045227,83.123451 161.329376,77.791527 160.849243,72.529343 
	C160.708694,70.988930 158.394760,69.646820 157.076981,68.213814 
	C155.670990,69.549911 153.116898,70.830315 153.048950,72.231308 
	C152.663910,80.169319 152.696075,88.144295 153.057236,96.085266 
	C153.117279,97.405701 155.720657,99.807159 156.748062,99.610947 
	C158.353729,99.304306 160.241638,97.442207 160.861633,95.804390 
	C161.576355,93.916298 161.043701,91.556023 161.052673,88.428764 
M188.201492,111.733391 
	C189.048065,112.863716 189.894638,113.994034 190.802551,115.206238 
	C190.927582,114.664040 190.953201,114.155525 191.156616,113.732483 
	C193.126938,109.634834 192.621674,107.795235 187.560364,109.429710 
	C185.394058,110.129303 182.427002,111.356407 180.885086,110.478912 
	C172.796402,105.875725 177.920670,113.358261 176.802704,114.911583 
	C176.471893,115.371216 177.429108,117.624092 177.910828,117.663811 
	C181.424774,117.953583 185.485962,119.508530 187.623398,114.837486 
	C186.508957,114.075554 185.539490,113.412727 184.131409,112.450043 
	C185.686859,112.027145 186.630096,111.770699 188.201492,111.733391 
M30.570230,4.115778 
	C28.297218,4.981674 25.861252,5.583717 23.828728,6.839004 
	C22.975952,7.365679 22.977491,9.275635 22.590639,10.556719 
	C23.866262,10.739585 25.519547,11.521399 26.349785,10.997906 
	C29.365978,9.096089 32.000725,8.813959 35.039635,10.982183 
	C35.797501,11.522912 37.508190,10.728189 38.780941,10.547271 
	C38.431919,9.238698 38.495502,7.316097 37.649269,6.747459 
	C35.802155,5.506263 33.492374,4.953592 30.570230,4.115778 
M91.845032,6.752655 
	C86.313751,3.432098 81.719460,3.195591 78.140511,6.461310 
	C77.168228,7.348498 77.049103,9.170686 76.538414,10.563745 
	C77.949951,10.647156 79.658867,11.279469 80.715187,10.707200 
	C83.470963,9.214241 85.852875,8.878791 88.567032,10.752723 
	C89.444099,11.358273 90.902580,11.121730 92.095093,11.270395 
	C92.197441,9.943753 92.299789,8.617111 91.845032,6.752655 
M155.901901,56.697426 
	C154.922150,58.347145 153.419724,59.925968 153.182297,61.676376 
	C153.062897,62.556641 155.148590,64.435593 156.407639,64.606499 
	C157.667053,64.777451 159.857742,63.722401 160.385223,62.609795 
	C162.067505,59.061344 160.348358,57.019897 155.901901,56.697426 
M101.101883,114.965668 
	C104.242783,118.896019 104.521469,118.939972 108.030762,115.639297 
	C106.557320,115.502312 105.425064,115.397041 104.365059,115.298492 
	C104.034180,113.382034 103.751923,111.747162 103.469658,110.112282 
	C102.917549,110.090530 102.365448,110.068779 101.813347,110.047035 
	C101.534363,111.417374 101.255386,112.787720 101.101883,114.965668 
M110.207146,115.702225 
	C110.388695,116.320930 110.570251,116.939636 110.751801,117.558350 
	C111.187515,117.489311 111.623230,117.420273 112.058937,117.351234 
	C111.833412,114.830818 111.607880,112.310394 111.387695,109.849731 
	C109.034340,110.330124 107.529068,110.637390 106.023804,110.944664 
	C106.031044,111.388184 106.038284,111.831703 106.045517,112.275223 
	C107.069992,112.347618 108.273354,112.116394 109.065491,112.583122 
	C109.770058,112.998253 110.018913,114.186798 110.207146,115.702225 
M98.227470,111.636284 
	C98.278206,111.274170 98.328949,110.912064 98.379684,110.549950 
	C98.120506,110.549881 97.861320,110.549812 97.602150,110.549751 
	C97.639786,110.912697 97.677422,111.275635 98.227470,111.636284 
M151.425980,109.541389 
	C151.190262,109.483376 150.954529,109.425362 150.718811,109.367348 
	C150.870636,109.514023 151.022476,109.660698 151.425980,109.541389 
z"/>
<path fill="#9CAE4C" opacity="1.000000" stroke="none" 
	d="
M1.000000,54.399994 
	C4.167337,50.863766 7.100633,51.033504 11.125890,53.240837 
	C41.035877,69.642624 71.356270,70.055855 101.855301,54.724987 
	C103.488670,53.903942 105.008003,52.349163 106.667961,52.214413 
	C108.807495,52.040730 111.780205,52.235619 113.061523,53.560505 
	C115.335518,55.911797 113.969925,58.733131 111.303726,60.159443 
	C105.742630,63.134411 100.024277,65.817947 94.341919,68.562004 
	C92.852051,69.281471 91.257347,69.783875 89.020424,70.618561 
	C85.512306,71.585533 82.694550,72.319923 79.876793,73.054314 
	C65.316628,75.772026 50.750935,75.910957 35.518753,72.926056 
	C31.884184,71.820183 28.909891,70.936150 25.935600,70.052109 
	C17.842157,66.098663 9.748715,62.145222 1.327637,58.095890 
	C1.000000,56.933331 1.000000,55.866661 1.000000,54.399994 
z"/>
<path fill="#9CAE4B" opacity="1.000000" stroke="none" 
	d="
M301.000000,91.625000 
	C297.518311,98.332062 292.298676,101.088135 285.023651,100.139626 
	C281.951477,99.739082 279.383881,98.542648 280.084839,95.375534 
	C280.474548,93.614647 282.967163,91.904762 284.900330,91.029831 
	C286.471436,90.318756 288.620819,90.885391 290.822021,90.224632 
	C284.185089,87.741325 278.675140,84.696892 279.992371,76.529007 
	C280.704956,72.110443 283.588898,69.078239 287.859283,68.574463 
	C292.196045,68.062851 297.342255,66.208801 300.664734,71.870956 
	C301.000000,72.444443 301.000000,72.888893 300.649414,73.788391 
	C296.671051,75.744919 293.043274,77.246391 288.343689,79.191475 
	C295.471375,79.524109 298.770050,83.664490 301.000000,89.000000 
	C301.000000,89.750000 301.000000,90.500000 301.000000,91.625000 
z"/>
<path fill="#F4F6EB" opacity="1.000000" stroke="none" 
	d="
M301.000000,88.533882 
	C298.770050,83.664490 295.471375,79.524109 288.343689,79.191475 
	C293.043274,77.246391 296.671051,75.744919 300.649414,74.121719 
	C301.000000,78.689255 301.000000,83.378510 301.000000,88.533882 
z"/>
<path fill="#64ACB0" opacity="1.000000" stroke="none" 
	d="
M206.105301,17.975935 
	C206.120667,15.174417 205.605225,12.661531 206.318802,10.567437 
	C206.891632,8.886358 208.788010,6.943793 210.415771,6.592021 
	C211.453552,6.367751 213.985825,8.668500 214.250275,10.126815 
	C214.895203,13.683421 214.609024,17.408661 214.700119,21.065937 
	C214.833801,26.432526 217.763489,29.915602 222.107742,29.875795 
	C226.342773,29.836990 229.625946,26.130505 229.778915,21.058578 
	C229.879318,17.729441 229.403763,14.320936 229.992020,11.094932 
	C230.281662,9.506623 232.399628,8.251714 233.690247,6.845933 
	C235.117935,8.164817 237.757294,9.458577 237.785248,10.806484 
	C238.054489,23.791342 238.298523,36.805187 237.676865,49.768883 
	C237.329590,57.010845 230.342407,62.777916 223.609024,63.107441 
	C220.801193,63.244854 218.078766,62.564899 218.255814,59.484623 
	C218.346619,57.905323 220.600830,55.692307 222.331528,55.105640 
	C227.809799,53.248653 229.717346,51.216698 229.811401,45.475185 
	C229.854691,42.831711 229.818771,40.186939 229.818771,36.868568 
	C222.713989,38.806118 216.306427,38.840988 210.944778,33.610268 
	C206.610107,29.381443 205.768478,24.121733 206.105301,17.975935 
z"/>
<path fill="#66ADB1" opacity="1.000000" stroke="none" 
	d="
M134.381622,59.899937 
	C134.323410,47.248699 134.052475,34.593620 134.280975,21.947567 
	C134.435928,13.372832 141.043198,6.922432 149.491669,6.266772 
	C156.872925,5.693935 164.413300,11.499879 165.904739,18.904509 
	C167.501114,26.830288 163.159393,34.691360 155.593994,37.206688 
	C153.750275,37.819683 151.549667,38.305592 149.766403,37.852722 
	C148.357178,37.494843 146.500076,35.686981 146.376938,34.378586 
	C146.252838,33.059898 147.857529,31.400124 149.032135,30.214008 
	C149.606339,29.634182 150.953903,29.887815 151.900024,29.596964 
	C155.963928,28.347660 158.606827,24.565678 157.713409,20.920160 
	C156.718307,16.859739 153.988708,14.692201 149.725555,14.855175 
	C145.812653,15.004762 142.919449,18.141743 142.881485,22.579121 
	C142.780319,34.401386 142.842575,46.225052 142.649063,58.641144 
	C142.269104,59.456642 142.178177,59.713898 141.855530,60.112633 
	C139.357422,61.784283 137.178848,62.240185 134.835968,60.174042 
	C134.694275,60.067387 134.381622,59.899937 134.381622,59.899937 
z"/>
<path fill="#9CAE4B" opacity="1.000000" stroke="none" 
	d="
M263.496887,99.593109 
	C251.177536,101.027321 243.872101,94.591515 243.806473,82.740067 
	C243.788040,79.414200 243.409851,76.016289 243.984146,72.791672 
	C244.281998,71.119240 246.300720,69.753304 247.542053,68.248917 
	C249.011383,69.715477 251.435837,71.002724 251.751831,72.685822 
	C252.415695,76.221764 251.873123,79.969284 252.007523,83.623260 
	C252.184479,88.434151 255.462769,91.838791 259.660919,91.791626 
	C263.910797,91.743881 266.966187,88.389412 267.106293,83.470985 
	C267.196228,80.313728 266.648987,77.048973 267.299683,74.028961 
	C267.722229,72.067856 269.503998,69.365364 271.177917,68.932335 
	C274.268097,68.132950 275.348145,70.826744 275.345673,73.647003 
	C275.335266,85.453575 275.530090,97.266823 275.188965,109.064301 
	C274.966980,116.742004 268.409760,123.185646 261.044495,123.106506 
	C259.168640,123.086357 257.316559,120.850288 255.453552,119.632355 
	C256.880005,118.114212 258.052277,115.747795 259.778656,115.230423 
	C265.980682,113.371750 269.897400,105.555260 266.849457,99.855278 
	C266.576935,99.345604 264.928833,99.571487 263.496887,99.593109 
z"/>
<path fill="#9CAE4C" opacity="1.000000" stroke="none" 
	d="
M192.985825,85.298889 
	C193.064850,73.728661 193.114120,62.587872 193.082214,51.447315 
	C193.073334,48.346275 193.586365,45.353199 197.279999,45.346882 
	C201.131073,45.340294 201.273560,48.506573 201.260803,51.512390 
	C201.213531,62.653301 201.365952,73.796623 201.186615,84.934906 
	C201.049408,93.455742 194.270172,99.936256 185.797852,100.078102 
	C177.323044,100.219994 170.263977,93.792976 169.800751,85.513344 
	C169.303558,76.626511 175.261047,68.935440 183.616272,68.446297 
	C185.535995,68.333916 187.584839,70.426765 189.574249,71.504753 
	C188.201355,73.235275 187.088013,76.091591 185.405579,76.479500 
	C180.854660,77.528717 178.029266,79.673920 178.011810,84.378136 
	C177.997971,88.107964 180.206589,90.715195 183.866104,91.477356 
	C188.561569,92.455269 191.451553,90.085091 192.985825,85.298889 
z"/>
<path fill="#63ACB0" opacity="1.000000" stroke="none" 
	d="
M194.918213,35.074669 
	C191.811096,36.213303 189.029572,37.764030 186.213974,37.828602 
	C184.614517,37.865280 182.959290,35.469460 181.329193,34.169113 
	C182.686752,32.761974 183.806595,30.598234 185.444595,30.083569 
	C191.355026,28.226469 194.450943,24.330448 192.639282,19.827648 
	C191.178253,16.196276 188.349869,14.240338 184.354172,14.918911 
	C180.184219,15.627077 177.980576,18.383114 177.949310,22.587605 
	C177.871353,33.074814 177.922501,43.562950 177.907639,54.050694 
	C177.905762,55.379162 178.318619,57.094269 177.657822,57.947716 
	C176.594513,59.321026 174.843964,60.823921 173.292465,60.929428 
	C172.223434,61.002125 170.013794,58.820213 169.997284,57.622730 
	C169.818405,44.645744 169.622131,31.648743 170.191391,18.690626 
	C170.458282,12.615097 176.479965,7.759476 183.114853,6.559594 
	C189.179840,5.462776 195.555130,8.370427 198.944183,13.779038 
	C202.271637,19.089342 202.070633,26.724985 198.366104,31.670893 
	C197.479568,32.854496 196.283356,33.806141 194.918213,35.074669 
z"/>
<path fill="#9DAE4C" opacity="1.000000" stroke="none" 
	d="
M127.138336,84.877625 
	C125.813202,94.820221 118.661392,100.876228 109.761093,100.015083 
	C101.531258,99.218811 94.974838,91.805443 95.310127,83.675316 
	C95.659737,75.198029 102.756065,68.283699 111.209557,68.183662 
	C120.023079,68.079361 126.635269,74.826607 127.138336,84.877625 
M116.360191,89.876488 
	C118.982941,87.245605 119.856026,84.234276 118.118851,80.801292 
	C116.225632,77.059937 111.566116,75.595497 107.839561,77.465416 
	C104.318039,79.232452 102.742935,83.719666 104.385086,87.306641 
	C106.332703,91.560822 110.634872,92.712555 116.360191,89.876488 
z"/>
<path fill="#9CAE4C" opacity="1.000000" stroke="none" 
	d="
M232.336761,99.702179 
	C231.229568,97.799438 230.063034,96.112206 229.874634,94.322029 
	C229.527847,91.026970 229.933472,87.659050 229.702698,84.343971 
	C229.369141,79.552673 226.407013,76.690353 222.094772,76.785858 
	C218.094910,76.874466 215.455765,78.795662 214.804581,82.887856 
	C214.105759,87.279350 216.388290,90.786812 220.994141,91.627632 
	C224.196732,92.212273 226.830109,93.065407 225.934341,96.821907 
	C224.979233,100.827339 221.608734,100.357674 218.597809,99.684822 
	C210.575333,97.892021 205.218979,90.261337 206.202103,82.205574 
	C207.173019,74.249634 214.482956,67.952698 222.477554,68.185516 
	C230.596298,68.421967 237.372513,74.799698 237.932800,83.020401 
	C238.203979,86.999107 238.056229,91.010902 237.996826,95.006203 
	C237.946259,98.406929 236.441162,100.380356 232.336761,99.702179 
z"/>
<path fill="#63ACB0" opacity="1.000000" stroke="none" 
	d="
M118.503448,20.025757 
	C116.511856,15.460219 112.980202,13.524576 109.089821,15.342886 
	C106.766937,16.428570 104.464165,19.769560 104.111229,22.363285 
	C103.512680,26.762167 106.734741,29.294910 111.067558,29.873667 
	C114.041801,30.270948 115.848755,31.690050 115.334488,34.743851 
	C114.801926,37.906258 112.264107,38.222599 109.544563,38.038021 
	C101.823921,37.514015 95.186340,30.100483 95.282303,22.030661 
	C95.378304,13.957864 102.160881,6.936141 110.499542,6.276886 
	C118.082092,5.677409 126.121048,11.855611 126.902962,19.388119 
	C127.399132,24.168036 127.393700,29.064331 126.929214,33.841934 
	C126.782784,35.348087 124.419228,36.638695 123.070396,38.027954 
	C121.707527,36.642891 119.383484,35.393963 119.164352,33.846897 
	C118.539284,29.433781 118.770668,24.899355 118.503448,20.025757 
z"/>
<path fill="#9BAD4C" opacity="1.000000" stroke="none" 
	d="
M89.038109,75.955818 
	C89.238731,86.251579 89.477798,96.546822 89.617973,106.843407 
	C89.663559,110.192139 88.460342,113.031731 84.587669,112.841431 
	C81.111237,112.670601 80.066376,110.057259 80.075851,106.830009 
	C80.104172,97.186531 80.048775,87.542809 80.523354,77.446152 
	C83.693130,76.647346 86.365616,76.301582 89.038109,75.955818 
z"/>
<path fill="#61ABAF" opacity="1.000000" stroke="none" 
	d="
M35.320229,33.993988 
	C35.314945,38.324566 35.329960,42.156960 35.297482,45.988945 
	C35.270786,49.138474 33.701637,51.611263 30.561993,50.898968 
	C28.786097,50.496063 26.326385,47.849380 26.244785,46.115887 
	C25.814360,36.972168 26.030508,27.797405 26.049326,18.633469 
	C26.055962,15.403219 28.002823,13.144667 30.900583,13.667046 
	C32.601299,13.973632 34.876945,16.680965 35.098255,18.524042 
	C35.690037,23.452383 35.312408,28.497129 35.320229,33.993988 
z"/>
<path fill="#62ABAF" opacity="1.000000" stroke="none" 
	d="
M80.020233,24.122234 
	C80.038223,21.654335 79.450226,19.370777 80.236969,17.757710 
	C81.100830,15.986502 83.216576,13.751798 84.814095,13.730159 
	C86.262032,13.710547 88.954704,16.347424 89.017723,17.897635 
	C89.407745,27.492540 89.404358,37.119350 89.008476,46.713985 
	C88.945518,48.239956 85.968445,51.034271 84.819252,50.807419 
	C83.011780,50.450630 80.369690,48.111862 80.255051,46.461277 
	C79.751053,39.204456 80.026978,31.893469 80.020233,24.122234 
z"/>
<path fill="#9BAD49" opacity="1.000000" stroke="none" 
	d="
M142.368317,64.959381 
	C142.466599,74.906059 142.767578,84.858719 142.474091,94.793823 
	C142.421982,96.557854 139.897400,98.248840 138.514542,99.973557 
	C137.115341,98.233727 134.572708,96.536118 134.506638,94.747055 
	C134.139252,84.800049 134.372879,74.830849 134.914734,64.429718 
	C137.741821,64.313255 140.055069,64.636314 142.368317,64.959381 
z"/>
<path fill="#9CAE4C" opacity="1.000000" stroke="none" 
	d="
M35.023586,110.007591 
	C31.587749,114.113029 30.232729,114.094284 26.963825,109.281174 
	C27.496214,103.969063 27.824877,99.269058 27.891640,94.565346 
	C27.903755,93.711876 26.843523,92.843178 26.278339,91.981514 
	C26.222343,87.633041 26.166349,83.284576 26.467081,78.418907 
	C27.203648,77.288933 27.583487,76.676147 28.348082,76.077454 
	C30.503113,76.450706 32.273392,76.809875 34.037930,77.627060 
	C34.028297,87.010902 33.972244,95.937286 34.065937,104.862091 
	C34.083977,106.580421 34.689228,108.292587 35.023586,110.007591 
z"/>
<path fill="#9CAD4A" opacity="1.000000" stroke="none" 
	d="
M161.052704,88.914780 
	C161.043701,91.556023 161.576355,93.916298 160.861633,95.804390 
	C160.241638,97.442207 158.353729,99.304306 156.748062,99.610947 
	C155.720657,99.807159 153.117279,97.405701 153.057236,96.085266 
	C152.696075,88.144295 152.663910,80.169319 153.048950,72.231308 
	C153.116898,70.830315 155.670990,69.549911 157.076981,68.213814 
	C158.394760,69.646820 160.708694,70.988930 160.849243,72.529343 
	C161.329376,77.791527 161.045227,83.123451 161.052704,88.914780 
z"/>
<path fill="#DDDDDD" opacity="1.000000" stroke="none" 
	d="
M187.887405,111.623825 
	C186.630096,111.770699 185.686859,112.027145 184.131409,112.450043 
	C185.539490,113.412727 186.508957,114.075554 187.623398,114.837486 
	C185.485962,119.508530 181.424774,117.953583 177.910828,117.663811 
	C177.429108,117.624092 176.471893,115.371216 176.802704,114.911583 
	C177.920670,113.358261 172.796402,105.875725 180.885086,110.478912 
	C182.427002,111.356407 185.394058,110.129303 187.560364,109.429710 
	C192.621674,107.795235 193.126938,109.634834 191.156616,113.732483 
	C190.953201,114.155525 190.927582,114.664040 190.802551,115.206238 
	C189.894638,113.994034 189.048065,112.863716 187.887405,111.623825 
z"/>
<path fill="#69AFB3" opacity="1.000000" stroke="none" 
	d="
M30.970926,4.117696 
	C33.492374,4.953592 35.802155,5.506263 37.649269,6.747459 
	C38.495502,7.316097 38.431919,9.238698 38.780941,10.547271 
	C37.508190,10.728189 35.797501,11.522912 35.039635,10.982183 
	C32.000725,8.813959 29.365978,9.096089 26.349785,10.997906 
	C25.519547,11.521399 23.866262,10.739585 22.590639,10.556719 
	C22.977491,9.275635 22.975952,7.365679 23.828728,6.839004 
	C25.861252,5.583717 28.297218,4.981674 30.970926,4.117696 
z"/>
<path fill="#6AAFB3" opacity="1.000000" stroke="none" 
	d="
M92.123581,7.021562 
	C92.299789,8.617111 92.197441,9.943753 92.095093,11.270395 
	C90.902580,11.121730 89.444099,11.358273 88.567032,10.752723 
	C85.852875,8.878791 83.470963,9.214241 80.715187,10.707200 
	C79.658867,11.279469 77.949951,10.647156 76.538414,10.563744 
	C77.049103,9.170686 77.168228,7.348498 78.140511,6.461310 
	C81.719460,3.195591 86.313751,3.432098 92.123581,7.021562 
z"/>
<path fill="#A3B25C" opacity="1.000000" stroke="none" 
	d="
M35.262218,109.671295 
	C34.689228,108.292587 34.083977,106.580421 34.065937,104.862091 
	C33.972244,95.937286 34.028297,87.010902 34.333969,77.561127 
	C34.836071,77.010017 35.036404,76.982857 35.236732,76.955696 
	C35.324772,87.748795 35.412811,98.541901 35.262218,109.671295 
z"/>
<path fill="#A0B152" opacity="1.000000" stroke="none" 
	d="
M156.257690,56.600563 
	C160.348358,57.019897 162.067505,59.061344 160.385223,62.609795 
	C159.857742,63.722401 157.667053,64.777451 156.407639,64.606499 
	C155.148590,64.435593 153.062897,62.556641 153.182297,61.676376 
	C153.419724,59.925968 154.922150,58.347145 156.257690,56.600563 
z"/>
<path fill="#737D41" opacity="1.000000" stroke="none" 
	d="
M35.294025,76.592033 
	C35.036404,76.982857 34.836071,77.010017 34.339706,77.103111 
	C32.273392,76.809875 30.503113,76.450706 28.073544,76.035286 
	C27.045561,75.938484 26.676868,75.897942 26.308178,75.857391 
	C26.209421,74.197594 26.110664,72.537796 25.973753,70.465057 
	C28.909891,70.936150 31.884184,71.820183 35.138252,72.990486 
	C35.395790,74.260628 35.373554,75.244499 35.294025,76.592033 
z"/>
<path fill="#6C7441" opacity="1.000000" stroke="none" 
	d="
M89.116608,75.536530 
	C86.365616,76.301582 83.693130,76.647346 80.616318,76.984299 
	C80.132179,75.929787 80.052361,74.884102 79.924667,73.446365 
	C82.694550,72.319923 85.512306,71.585533 88.758606,70.833099 
	C89.189796,72.249115 89.192451,73.683174 89.116608,75.536530 
z"/>
<path fill="#A3B25C" opacity="1.000000" stroke="none" 
	d="
M26.199085,92.443909 
	C26.843523,92.843178 27.903755,93.711876 27.891640,94.565346 
	C27.824877,99.269058 27.496214,103.969063 26.878590,108.919090 
	C26.373146,103.747330 26.246487,98.326813 26.199085,92.443909 
z"/>
<path fill="#90A23E" opacity="1.000000" stroke="none" 
	d="
M142.494476,64.573219 
	C140.055069,64.636314 137.741821,64.313255 135.067657,63.985714 
	C134.596954,63.207561 134.487167,62.433891 134.561096,61.192623 
	C134.850433,60.591595 134.928040,60.443485 134.977646,60.280697 
	C137.178848,62.240185 139.357422,61.784283 141.982147,60.163132 
	C142.438690,60.106888 142.713165,60.129013 142.713165,60.129013 
	C142.682327,61.481697 142.651489,62.834381 142.494476,64.573219 
z"/>
<path fill="#F1F1F1" opacity="1.000000" stroke="none" 
	d="
M101.039139,114.561859 
	C101.255386,112.787720 101.534363,111.417374 101.813347,110.047035 
	C102.365448,110.068779 102.917549,110.090530 103.469658,110.112282 
	C103.751923,111.747162 104.034180,113.382034 104.365059,115.298492 
	C105.425064,115.397041 106.557320,115.502312 108.030762,115.639297 
	C104.521469,118.939972 104.242783,118.896019 101.039139,114.561859 
z"/>
<path fill="#E2E3E3" opacity="1.000000" stroke="none" 
	d="
M150.163132,111.817299 
	C151.377457,111.548340 152.591797,111.279388 153.947144,110.979195 
	C153.947144,112.882973 153.947144,114.824165 153.947144,116.456566 
	C152.282166,116.957047 150.700378,117.432518 148.258942,118.166397 
	C149.024261,115.709442 149.473618,114.266853 149.967117,112.401100 
	C150.011261,111.977928 150.163132,111.817299 150.163132,111.817299 
z"/>
<path fill="#F1F1F1" opacity="1.000000" stroke="none" 
	d="
M110.338028,115.368103 
	C110.018913,114.186798 109.770058,112.998253 109.065491,112.583122 
	C108.273354,112.116394 107.069992,112.347618 106.045517,112.275223 
	C106.038284,111.831703 106.031044,111.388184 106.023804,110.944664 
	C107.529068,110.637390 109.034340,110.330124 111.387695,109.849731 
	C111.607880,112.310394 111.833412,114.830818 112.058937,117.351234 
	C111.623230,117.420273 111.187515,117.489311 110.751801,117.558350 
	C110.570251,116.939636 110.388695,116.320930 110.338028,115.368103 
z"/>
<path fill="#212323" opacity="1.000000" stroke="none" 
	d="
M158.123108,112.047394 
	C158.229736,113.566643 158.336365,115.085899 158.499237,117.406464 
	C158.428787,117.486870 157.458939,118.594017 155.876831,120.400085 
	C155.876831,116.954498 155.851761,114.145111 155.939606,111.339272 
	C155.944824,111.172180 156.855240,111.033440 157.735809,111.201843 
	C158.125809,111.697258 158.124451,111.872322 158.123108,112.047394 
z"/>
<path fill="#E0E0E0" opacity="1.000000" stroke="none" 
	d="
M158.497528,112.061707 
	C158.124451,111.872322 158.125809,111.697258 158.039032,111.274811 
	C158.975433,110.711555 160.723572,109.898148 160.905014,110.162018 
	C161.941483,111.669334 162.605042,113.433067 162.378235,115.576019 
	C161.209473,114.409355 160.040710,113.242683 158.497528,112.061707 
z"/>
<path fill="#F1F1F1" opacity="1.000000" stroke="none" 
	d="
M97.971268,111.637436 
	C97.677422,111.275635 97.639786,110.912697 97.602142,110.549751 
	C97.861320,110.549812 98.120506,110.549881 98.379684,110.549950 
	C98.328949,110.912064 98.278206,111.274170 97.971268,111.637436 
z"/>
<path fill="#A3B25C" opacity="1.000000" stroke="none" 
	d="
M26.205952,76.211044 
	C26.676868,75.897942 27.045561,75.938484 27.688789,76.021202 
	C27.583487,76.676147 27.203648,77.288933 26.535267,77.960091 
	C26.199059,77.533882 26.151390,77.049294 26.205952,76.211044 
z"/>
<path fill="#E2E3E3" opacity="1.000000" stroke="none" 
	d="
M151.300140,109.674377 
	C151.022476,109.660698 150.870636,109.514023 150.718811,109.367348 
	C150.954529,109.425362 151.190262,109.483376 151.300140,109.674377 
z"/>
<path fill="#9BAD49" opacity="1.000000" stroke="none" 
	d="
M134.835968,60.174042 
	C134.928040,60.443485 134.850433,60.591595 134.647537,60.806664 
	C134.476852,60.731934 134.403442,60.575569 134.355835,60.159573 
	C134.381622,59.899937 134.694275,60.067387 134.835968,60.174042 
z"/>
<path fill="#BEC98C" opacity="1.000000" stroke="none" 
	d="
M142.798233,59.846336 
	C142.713165,60.129013 142.438690,60.106888 142.312073,60.056393 
	C142.178177,59.713898 142.269104,59.456642 142.622726,59.107628 
	C142.819229,59.175308 142.851273,59.369484 142.798233,59.846336 
z"/>
<path fill="#E2E3E3" opacity="1.000000" stroke="none" 
	d="
M149.931335,112.054276 
	C149.676514,111.948845 149.501602,111.767052 149.326691,111.585258 
	C149.533340,111.553307 149.739990,111.521347 150.054886,111.653343 
	C150.163132,111.817299 150.011261,111.977928 149.931335,112.054276 
z"/>
<path fill="#ECF3EC" opacity="1.000000" stroke="none" 
	d="
M116.057777,90.113533 
	C110.634872,92.712555 106.332703,91.560822 104.385086,87.306641 
	C102.742935,83.719666 104.318039,79.232452 107.839561,77.465416 
	C111.566116,75.595497 116.225632,77.059937 118.118851,80.801292 
	C119.856026,84.234276 118.982941,87.245605 116.057777,90.113533 
M106.199905,82.902481 
	C105.830963,86.157440 106.953873,88.891724 110.362877,88.993584 
	C112.233315,89.049461 114.924675,87.617325 115.826294,86.043076 
	C116.572853,84.739571 115.899048,81.536148 114.697266,80.415146 
	C111.595032,77.521431 108.640175,78.785469 106.199905,82.902481 
z"/>
<path fill="#64ACB0" opacity="1.000000" stroke="none" 
	d="
M106.342484,82.536583 
	C108.640175,78.785469 111.595032,77.521431 114.697266,80.415146 
	C115.899048,81.536148 116.572853,84.739571 115.826294,86.043076 
	C114.924675,87.617325 112.233315,89.049461 110.362877,88.993584 
	C106.953873,88.891724 105.830963,86.157440 106.342484,82.536583 
z"/>
</svg>